<?xml version="1.0" encoding="UTF-8" standalone="no"?>
<!DOCTYPE svg PUBLIC "-//W3C//DTD SVG 1.1//EN"
 "http://www.w3.org/Graphics/SVG/1.1/DTD/svg11.dtd">
<!-- Generated by graphviz version 2.40.1 (20161225.0304)
 -->
<!-- Title: %3 Pages: 1 -->
<svg width="1171pt" height="1027pt"
 viewBox="0.00 0.00 1171.33 1027.00" xmlns="http://www.w3.org/2000/svg" xmlns:xlink="http://www.w3.org/1999/xlink">
<g id="graph0" class="graph" transform="scale(1 1) rotate(0) translate(4 1023)">
<title>%3</title>
<polygon fill="#ffffff" stroke="transparent" points="-4,4 -4,-1023 1167.3345,-1023 1167.3345,4 -4,4"/>
<text text-anchor="middle" x="581.6672" y="-991" font-family="Times,serif" font-size="30.00" fill="#000000">Go Built&#45;in Rules</text>
<!-- replace_expression_with_boolean_literal -->
<g id="node1" class="node">
<title>replace_expression_with_boolean_literal</title>
<ellipse fill="none" stroke="#000000" cx="336.5" cy="-960" rx="199.5646" ry="18"/>
<text text-anchor="middle" x="336.5" y="-956.3" font-family="Times,serif" font-size="14.00" fill="#000000">replace_expression_with_boolean_literal</text>
</g>
<!-- boolean_literal_cleanup -->
<g id="node2" class="node">
<title>boolean_literal_cleanup</title>
<ellipse fill="none" stroke="#000000" cx="258.5" cy="-873" rx="120.7786" ry="18"/>
<text text-anchor="middle" x="258.5" y="-869.3" font-family="Times,serif" font-size="14.00" fill="#000000">boolean_literal_cleanup</text>
</g>
<!-- replace_expression_with_boolean_literal&#45;&gt;boolean_literal_cleanup -->
<g id="edge1" class="edge">
<title>replace_expression_with_boolean_literal&#45;&gt;boolean_literal_cleanup</title>
<path fill="none" stroke="#000000" d="M320.3383,-941.9735C309.1479,-929.4919 294.0841,-912.6899 281.626,-898.7944"/>
<polygon fill="#000000" stroke="#000000" points="283.9224,-896.1127 274.6409,-891.0034 278.7104,-900.7855 283.9224,-896.1127"/>
<text text-anchor="middle" x="326.5" y="-912.8" font-family="Times,serif" font-size="14.00" fill="#000000">Parent</text>
</g>
<!-- statement_cleanup -->
<g id="node4" class="node">
<title>statement_cleanup</title>
<ellipse fill="none" stroke="#000000" cx="415.5" cy="-694" rx="99.3824" ry="18"/>
<text text-anchor="middle" x="415.5" y="-690.3" font-family="Times,serif" font-size="14.00" fill="#000000">statement_cleanup</text>
</g>
<!-- replace_expression_with_boolean_literal&#45;&gt;statement_cleanup -->
<g id="edge2" class="edge">
<title>replace_expression_with_boolean_literal&#45;&gt;statement_cleanup</title>
<path fill="none" stroke="#000000" d="M354.1772,-942.0155C365.9061,-928.9621 380.5535,-910.2764 388.5,-891 411.8307,-834.4047 415.7947,-761.6913 416.0276,-722.3448"/>
<polygon fill="#000000" stroke="#000000" points="419.5274,-722.166 416.0074,-712.173 412.5274,-722.1799 419.5274,-722.166"/>
<text text-anchor="middle" x="424.5" y="-869.3" font-family="Times,serif" font-size="14.00" fill="#000000">Parent</text>
</g>
<!-- boolean_expression_simplify -->
<g id="node3" class="node">
<title>boolean_expression_simplify</title>
<polygon fill="none" stroke="#000000" points="0,-584.5 0,-803.5 231,-803.5 231,-584.5 0,-584.5"/>
<text text-anchor="middle" x="115.5" y="-788.3" font-family="Times,serif" font-size="14.00" fill="#000000">boolean_expression_simplify</text>
<text text-anchor="middle" x="115.5" y="-757.3" font-family="Times,serif" font-size="14.00" fill="#000000">simplify_not_false</text>
<text text-anchor="middle" x="115.5" y="-742.3" font-family="Times,serif" font-size="14.00" fill="#000000">simplify_not_true</text>
<text text-anchor="middle" x="115.5" y="-727.3" font-family="Times,serif" font-size="14.00" fill="#000000">simplify_true_and_something</text>
<text text-anchor="middle" x="115.5" y="-712.3" font-family="Times,serif" font-size="14.00" fill="#000000">simplify_something_and_true</text>
<text text-anchor="middle" x="115.5" y="-697.3" font-family="Times,serif" font-size="14.00" fill="#000000">simplify_false_and_something</text>
<text text-anchor="middle" x="115.5" y="-682.3" font-family="Times,serif" font-size="14.00" fill="#000000">simplify_something_and_false</text>
<text text-anchor="middle" x="115.5" y="-667.3" font-family="Times,serif" font-size="14.00" fill="#000000">simplify_something_or_true</text>
<text text-anchor="middle" x="115.5" y="-652.3" font-family="Times,serif" font-size="14.00" fill="#000000">simplify_true_or_something</text>
<text text-anchor="middle" x="115.5" y="-637.3" font-family="Times,serif" font-size="14.00" fill="#000000">simplify_something_or_false</text>
<text text-anchor="middle" x="115.5" y="-622.3" font-family="Times,serif" font-size="14.00" fill="#000000">simplify_false_or_something</text>
<text text-anchor="middle" x="115.5" y="-607.3" font-family="Times,serif" font-size="14.00" fill="#000000">simplify_identity_equal</text>
<text text-anchor="middle" x="115.5" y="-592.3" font-family="Times,serif" font-size="14.00" fill="#000000">simplify_identity_not_equal</text>
</g>
<!-- boolean_literal_cleanup&#45;&gt;boolean_expression_simplify -->
<g id="edge3" class="edge">
<title>boolean_literal_cleanup&#45;&gt;boolean_expression_simplify</title>
<path fill="none" stroke="#000000" d="M222.0863,-855.658C213.3904,-850.4466 204.5854,-844.1746 197.5,-837 189.9558,-829.3609 182.8618,-820.8898 176.248,-811.9945"/>
<polygon fill="#000000" stroke="#000000" points="178.9832,-809.8027 170.3099,-803.7178 173.2955,-813.8833 178.9832,-809.8027"/>
<text text-anchor="middle" x="221.5" y="-825.8" font-family="Times,serif" font-size="14.00" fill="#000000">Parent</text>
</g>
<!-- boolean_literal_cleanup&#45;&gt;statement_cleanup -->
<g id="edge4" class="edge">
<title>boolean_literal_cleanup&#45;&gt;statement_cleanup</title>
<path fill="none" stroke="#000000" d="M274.418,-854.8515C302.4661,-822.8731 360.7617,-756.4086 392.9439,-719.7168"/>
<polygon fill="#000000" stroke="#000000" points="395.8106,-721.7563 399.7733,-711.9304 390.548,-717.1405 395.8106,-721.7563"/>
<text text-anchor="middle" x="325.5" y="-825.8" font-family="Times,serif" font-size="14.00" fill="#000000">Parent</text>
</g>
<!-- boolean_expression_simplify&#45;&gt;boolean_literal_cleanup -->
<g id="edge5" class="edge">
<title>boolean_expression_simplify&#45;&gt;boolean_literal_cleanup</title>
<path fill="none" stroke="#000000" d="M116.5185,-803.6036C120.4092,-815.8135 126.1727,-827.315 134.5,-837 140.7227,-844.2372 156.5262,-850.6431 174.848,-855.9698"/>
<polygon fill="#000000" stroke="#000000" points="174.0513,-859.3806 184.6213,-858.6557 175.9063,-852.6308 174.0513,-859.3806"/>
<text text-anchor="middle" x="158.5" y="-825.8" font-family="Times,serif" font-size="14.00" fill="#000000">Parent</text>
</g>
<!-- remove_else_from_else_if_false -->
<g id="node5" class="node">
<title>remove_else_from_else_if_false</title>
<ellipse fill="none" stroke="#000000" cx="792.5" cy="-515" rx="157.0724" ry="18"/>
<text text-anchor="middle" x="792.5" y="-511.3" font-family="Times,serif" font-size="14.00" fill="#000000">remove_else_from_else_if_false</text>
</g>
<!-- statement_cleanup&#45;&gt;remove_else_from_else_if_false -->
<g id="edge6" class="edge">
<title>statement_cleanup&#45;&gt;remove_else_from_else_if_false</title>
<path fill="none" stroke="#000000" d="M450.9672,-677.1601C519.4338,-644.6521 669.7756,-573.2697 746.0903,-537.0354"/>
<polygon fill="#000000" stroke="#000000" points="747.9315,-540.0357 755.4638,-532.5848 744.9291,-533.7123 747.9315,-540.0357"/>
<text text-anchor="middle" x="734.5" y="-554.8" font-family="Times,serif" font-size="14.00" fill="#000000">Parent</text>
</g>
<!-- delete_variable_declaration -->
<g id="node6" class="node">
<title>delete_variable_declaration</title>
<ellipse fill="none" stroke="#000000" cx="414.5" cy="-461" rx="139.9756" ry="18"/>
<text text-anchor="middle" x="414.5" y="-457.3" font-family="Times,serif" font-size="14.00" fill="#000000">delete_variable_declaration</text>
</g>
<!-- statement_cleanup&#45;&gt;delete_variable_declaration -->
<g id="edge8" class="edge">
<title>statement_cleanup&#45;&gt;delete_variable_declaration</title>
<path fill="none" stroke="#000000" d="M415.4215,-675.7169C415.2477,-635.2236 414.8294,-537.7396 414.6215,-489.301"/>
<polygon fill="#000000" stroke="#000000" points="418.1211,-489.183 414.5781,-479.1982 411.1212,-489.2132 418.1211,-489.183"/>
<text text-anchor="middle" x="477.5" y="-554.8" font-family="Times,serif" font-size="14.00" fill="#000000">Function&#45;Method</text>
</g>
<!-- if_cleanup -->
<g id="node8" class="node">
<title>if_cleanup</title>
<polygon fill="none" stroke="#000000" points="501.5,-325.5 501.5,-424.5 879.5,-424.5 879.5,-325.5 501.5,-325.5"/>
<text text-anchor="middle" x="690.5" y="-409.3" font-family="Times,serif" font-size="14.00" fill="#000000">if_cleanup</text>
<text text-anchor="middle" x="690.5" y="-378.3" font-family="Times,serif" font-size="14.00" fill="#000000">simplify_if_statement_true</text>
<text text-anchor="middle" x="690.5" y="-363.3" font-family="Times,serif" font-size="14.00" fill="#000000">simplify_if_statement_false</text>
<text text-anchor="middle" x="690.5" y="-348.3" font-family="Times,serif" font-size="14.00" fill="#000000">simplify_something_and_false_consequence_block</text>
<text text-anchor="middle" x="690.5" y="-333.3" font-family="Times,serif" font-size="14.00" fill="#000000">simplify_something_or_true_alternative</text>
</g>
<!-- statement_cleanup&#45;&gt;if_cleanup -->
<g id="edge7" class="edge">
<title>statement_cleanup&#45;&gt;if_cleanup</title>
<path fill="none" stroke="#000000" d="M437.0752,-676.2395C464.3486,-652.9955 511.5827,-610.0141 543.5,-566 563.6866,-538.1626 558.9124,-525.2621 578.5,-497 594.1848,-474.369 613.8079,-451.5973 632.2279,-431.957"/>
<polygon fill="#000000" stroke="#000000" points="634.874,-434.2532 639.2179,-424.5898 629.7959,-429.4352 634.874,-434.2532"/>
<text text-anchor="middle" x="602.5" y="-511.3" font-family="Times,serif" font-size="14.00" fill="#000000">Parent</text>
</g>
<!-- remove_else_from_else_if_false&#45;&gt;if_cleanup -->
<g id="edge9" class="edge">
<title>remove_else_from_else_if_false&#45;&gt;if_cleanup</title>
<path fill="none" stroke="#000000" d="M779.3741,-496.9841C767.5377,-480.738 749.4658,-455.9335 732.7018,-432.9241"/>
<polygon fill="#000000" stroke="#000000" points="735.3162,-430.5687 726.5988,-424.5473 729.6585,-434.6907 735.3162,-430.5687"/>
<text text-anchor="middle" x="826.5" y="-457.3" font-family="Times,serif" font-size="14.00" fill="#000000">Function&#45;Method</text>
</g>
<!-- replace_identifier_with_value -->
<g id="node7" class="node">
<title>replace_identifier_with_value</title>
<ellipse fill="none" stroke="#000000" cx="359.5" cy="-224" rx="148.3739" ry="18"/>
<text text-anchor="middle" x="359.5" y="-220.3" font-family="Times,serif" font-size="14.00" fill="#000000">replace_identifier_with_value</text>
</g>
<!-- delete_variable_declaration&#45;&gt;replace_identifier_with_value -->
<g id="edge10" class="edge">
<title>delete_variable_declaration&#45;&gt;replace_identifier_with_value</title>
<path fill="none" stroke="#000000" d="M383.9633,-443.188C377.8084,-438.1204 372.1228,-432.0316 368.5,-425 339.7887,-369.2736 346.9093,-292.8995 353.7333,-252.2129"/>
<polygon fill="#000000" stroke="#000000" points="357.2086,-252.6616 355.5298,-242.2006 350.3187,-251.4252 357.2086,-252.6616"/>
<text text-anchor="middle" x="430.5" y="-371.3" font-family="Times,serif" font-size="14.00" fill="#000000">Function&#45;Method</text>
</g>
<!-- replace_identifier_with_value&#45;&gt;boolean_literal_cleanup -->
<g id="edge11" class="edge">
<title>replace_identifier_with_value&#45;&gt;boolean_literal_cleanup</title>
<path fill="none" stroke="#000000" d="M337.3068,-241.9245C307.8459,-267.892 259.5,-319.0318 259.5,-375 259.5,-694 259.5,-694 259.5,-694 259.5,-747.3697 259.05,-809.6887 258.7537,-844.9324"/>
<polygon fill="#000000" stroke="#000000" points="255.2537,-844.9311 258.6674,-854.9609 262.2534,-844.9915 255.2537,-844.9311"/>
<text text-anchor="middle" x="283.5" y="-511.3" font-family="Times,serif" font-size="14.00" fill="#000000">Parent</text>
</g>
<!-- if_cleanup&#45;&gt;replace_identifier_with_value -->
<g id="edge14" class="edge">
<title>if_cleanup&#45;&gt;replace_identifier_with_value</title>
<path fill="none" stroke="#000000" d="M581.6598,-325.3478C522.5531,-298.3837 452.4811,-266.4174 407.0668,-245.6996"/>
<polygon fill="#000000" stroke="#000000" points="408.3136,-242.4215 397.7629,-241.4553 405.4082,-248.7901 408.3136,-242.4215"/>
<text text-anchor="middle" x="596.5" y="-295.8" font-family="Times,serif" font-size="14.00" fill="#000000">Function&#45;Method</text>
</g>
<!-- empty_if_else_cleanup -->
<g id="node9" class="node">
<title>empty_if_else_cleanup</title>
<polygon fill="none" stroke="#000000" points="545,-174.5 545,-273.5 796,-273.5 796,-174.5 545,-174.5"/>
<text text-anchor="middle" x="670.5" y="-258.3" font-family="Times,serif" font-size="14.00" fill="#000000">empty_if_else_cleanup</text>
<text text-anchor="middle" x="670.5" y="-227.3" font-family="Times,serif" font-size="14.00" fill="#000000">remove_empty_else_if</text>
<text text-anchor="middle" x="670.5" y="-212.3" font-family="Times,serif" font-size="14.00" fill="#000000">remove_empty_else_if_with_else</text>
<text text-anchor="middle" x="670.5" y="-197.3" font-family="Times,serif" font-size="14.00" fill="#000000">remove_empty_else</text>
<text text-anchor="middle" x="670.5" y="-182.3" font-family="Times,serif" font-size="14.00" fill="#000000">remove_empty_if_without_else</text>
</g>
<!-- if_cleanup&#45;&gt;empty_if_else_cleanup -->
<g id="edge13" class="edge">
<title>if_cleanup&#45;&gt;empty_if_else_cleanup</title>
<path fill="none" stroke="#000000" d="M683.8958,-325.1385C682.1459,-311.9267 680.2386,-297.5263 678.4263,-283.8435"/>
<polygon fill="#000000" stroke="#000000" points="681.846,-283.0055 677.0631,-273.5517 674.9066,-283.9247 681.846,-283.0055"/>
<text text-anchor="middle" x="704.5" y="-295.8" font-family="Times,serif" font-size="14.00" fill="#000000">Parent</text>
</g>
<!-- remove_unnecessary_nested_block -->
<g id="node10" class="node">
<title>remove_unnecessary_nested_block</title>
<ellipse fill="none" stroke="#000000" cx="988.5" cy="-224" rx="174.6691" ry="18"/>
<text text-anchor="middle" x="988.5" y="-220.3" font-family="Times,serif" font-size="14.00" fill="#000000">remove_unnecessary_nested_block</text>
</g>
<!-- if_cleanup&#45;&gt;remove_unnecessary_nested_block -->
<g id="edge12" class="edge">
<title>if_cleanup&#45;&gt;remove_unnecessary_nested_block</title>
<path fill="none" stroke="#000000" d="M788.4891,-325.3478C841.0542,-298.7125 903.2522,-267.1961 944.1703,-246.4623"/>
<polygon fill="#000000" stroke="#000000" points="945.9921,-249.463 953.3303,-241.8209 942.8281,-243.2188 945.9921,-249.463"/>
<text text-anchor="middle" x="871.5" y="-295.8" font-family="Times,serif" font-size="14.00" fill="#000000">Parent</text>
</g>
<!-- remove_empty_nested_block -->
<g id="node13" class="node">
<title>remove_empty_nested_block</title>
<ellipse fill="none" stroke="#000000" cx="670.5" cy="-105" rx="145.6742" ry="18"/>
<text text-anchor="middle" x="670.5" y="-101.3" font-family="Times,serif" font-size="14.00" fill="#000000">remove_empty_nested_block</text>
</g>
<!-- empty_if_else_cleanup&#45;&gt;remove_empty_nested_block -->
<g id="edge15" class="edge">
<title>empty_if_else_cleanup&#45;&gt;remove_empty_nested_block</title>
<path fill="none" stroke="#000000" d="M670.5,-174.2228C670.5,-160.233 670.5,-145.5061 670.5,-133.2494"/>
<polygon fill="#000000" stroke="#000000" points="674.0001,-133.1949 670.5,-123.195 667.0001,-133.195 674.0001,-133.1949"/>
<text text-anchor="middle" x="694.5" y="-144.8" font-family="Times,serif" font-size="14.00" fill="#000000">Parent</text>
</g>
<!-- return_statement_cleanup -->
<g id="node11" class="node">
<title>return_statement_cleanup</title>
<ellipse fill="none" stroke="#000000" cx="988.5" cy="-105" rx="133.7763" ry="18"/>
<text text-anchor="middle" x="988.5" y="-101.3" font-family="Times,serif" font-size="14.00" fill="#000000">return_statement_cleanup</text>
</g>
<!-- remove_unnecessary_nested_block&#45;&gt;return_statement_cleanup -->
<g id="edge16" class="edge">
<title>remove_unnecessary_nested_block&#45;&gt;return_statement_cleanup</title>
<path fill="none" stroke="#000000" d="M988.5,-205.9265C988.5,-186.7051 988.5,-156.0332 988.5,-133.5417"/>
<polygon fill="#000000" stroke="#000000" points="992.0001,-133.2436 988.5,-123.2436 985.0001,-133.2437 992.0001,-133.2436"/>
<text text-anchor="middle" x="1012.5" y="-144.8" font-family="Times,serif" font-size="14.00" fill="#000000">Parent</text>
</g>
<!-- delete_statement_after_return -->
<g id="node12" class="node">
<title>delete_statement_after_return</title>
<ellipse fill="none" stroke="#000000" cx="987.5" cy="-18" rx="153.2729" ry="18"/>
<text text-anchor="middle" x="987.5" y="-14.3" font-family="Times,serif" font-size="14.00" fill="#000000">delete_statement_after_return</text>
</g>
<!-- return_statement_cleanup&#45;&gt;delete_statement_after_return -->
<g id="edge17" class="edge">
<title>return_statement_cleanup&#45;&gt;delete_statement_after_return</title>
<path fill="none" stroke="#000000" d="M965.699,-86.8934C960.7461,-81.6966 956.1888,-75.6229 953.5,-69 949.9724,-60.3111 952.9025,-51.5608 958.2623,-43.821"/>
<polygon fill="#000000" stroke="#000000" points="961.1629,-45.8056 964.8413,-35.8698 955.7697,-41.3431 961.1629,-45.8056"/>
<text text-anchor="middle" x="977.5" y="-57.8" font-family="Times,serif" font-size="14.00" fill="#000000">Parent</text>
</g>
<!-- delete_statement_after_return&#45;&gt;return_statement_cleanup -->
<g id="edge18" class="edge">
<title>delete_statement_after_return&#45;&gt;return_statement_cleanup</title>
<path fill="none" stroke="#000000" d="M996.1219,-36.2976C998.3265,-41.8576 1000.3872,-48.0681 1001.5,-54 1002.9131,-61.5325 1002.0047,-69.6038 1000.1444,-77.0522"/>
<polygon fill="#000000" stroke="#000000" points="996.7673,-76.126 997.1462,-86.714 1003.4528,-78.2007 996.7673,-76.126"/>
<text text-anchor="middle" x="1025.5" y="-57.8" font-family="Times,serif" font-size="14.00" fill="#000000">Parent</text>
</g>
</g>
</svg>
