<?xml version="1.0" encoding="UTF-8" standalone="no"?>
<!DOCTYPE svg PUBLIC "-//W3C//DTD SVG 1.1//EN"
 "http://www.w3.org/Graphics/SVG/1.1/DTD/svg11.dtd">
<!-- Generated by graphviz version 2.40.1 (20161225.0304)
 -->
<!-- Title: %3 Pages: 1 -->
<svg width="971pt" height="889pt"
 viewBox="0.00 0.00 970.77 889.00" xmlns="http://www.w3.org/2000/svg" xmlns:xlink="http://www.w3.org/1999/xlink">
<g id="graph0" class="graph" transform="scale(1 1) rotate(0) translate(4 885)">
<title>%3</title>
<polygon fill="#ffffff" stroke="transparent" points="-4,4 -4,-885 966.7739,-885 966.7739,4 -4,4"/>
<text text-anchor="middle" x="481.387" y="-853" font-family="Times,serif" font-size="30.00" fill="#000000">Go Built&#45;in Rules</text>
<!-- replace_expression_with_boolean_literal -->
<g id="node1" class="node">
<title>replace_expression_with_boolean_literal</title>
<ellipse fill="none" stroke="#000000" cx="421.1869" cy="-822" rx="199.5646" ry="18"/>
<text text-anchor="middle" x="421.1869" y="-818.3" font-family="Times,serif" font-size="14.00" fill="#000000">replace_expression_with_boolean_literal</text>
</g>
<!-- boolean_literal_cleanup -->
<g id="node2" class="node">
<title>boolean_literal_cleanup</title>
<ellipse fill="none" stroke="#000000" cx="341.1869" cy="-735" rx="120.7786" ry="18"/>
<text text-anchor="middle" x="341.1869" y="-731.3" font-family="Times,serif" font-size="14.00" fill="#000000">boolean_literal_cleanup</text>
</g>
<!-- replace_expression_with_boolean_literal&#45;&gt;boolean_literal_cleanup -->
<g id="edge1" class="edge">
<title>replace_expression_with_boolean_literal&#45;&gt;boolean_literal_cleanup</title>
<path fill="none" stroke="#000000" d="M404.6108,-803.9735C393.0261,-791.3752 377.3942,-774.3755 364.5483,-760.4055"/>
<polygon fill="#000000" stroke="#000000" points="367.0868,-757.9953 357.7417,-753.0034 361.9341,-762.7335 367.0868,-757.9953"/>
<text text-anchor="middle" x="410.1869" y="-774.8" font-family="Times,serif" font-size="14.00" fill="#000000">Parent</text>
</g>
<!-- statement_cleanup -->
<g id="node4" class="node">
<title>statement_cleanup</title>
<ellipse fill="none" stroke="#000000" cx="503.1869" cy="-556" rx="99.3824" ry="18"/>
<text text-anchor="middle" x="503.1869" y="-552.3" font-family="Times,serif" font-size="14.00" fill="#000000">statement_cleanup</text>
</g>
<!-- replace_expression_with_boolean_literal&#45;&gt;statement_cleanup -->
<g id="edge2" class="edge">
<title>replace_expression_with_boolean_literal&#45;&gt;statement_cleanup</title>
<path fill="none" stroke="#000000" d="M438.025,-803.8344C449.2297,-790.6978 463.292,-771.9873 471.1869,-753 494.777,-696.2653 501.04,-623.6056 502.6616,-584.3053"/>
<polygon fill="#000000" stroke="#000000" points="506.1651,-584.2592 503.0064,-574.1462 499.1691,-584.0216 506.1651,-584.2592"/>
<text text-anchor="middle" x="507.1869" y="-731.3" font-family="Times,serif" font-size="14.00" fill="#000000">Parent</text>
</g>
<!-- boolean_expression_simplify -->
<g id="node3" class="node">
<title>boolean_expression_simplify</title>
<polygon fill="none" stroke="#000000" points="154.6869,-446.5 154.6869,-665.5 385.6869,-665.5 385.6869,-446.5 154.6869,-446.5"/>
<text text-anchor="middle" x="270.1869" y="-650.3" font-family="Times,serif" font-size="14.00" fill="#000000">boolean_expression_simplify</text>
<text text-anchor="middle" x="270.1869" y="-619.3" font-family="Times,serif" font-size="14.00" fill="#000000">simplify_not_false</text>
<text text-anchor="middle" x="270.1869" y="-604.3" font-family="Times,serif" font-size="14.00" fill="#000000">simplify_not_true</text>
<text text-anchor="middle" x="270.1869" y="-589.3" font-family="Times,serif" font-size="14.00" fill="#000000">simplify_true_and_something</text>
<text text-anchor="middle" x="270.1869" y="-574.3" font-family="Times,serif" font-size="14.00" fill="#000000">simplify_something_and_true</text>
<text text-anchor="middle" x="270.1869" y="-559.3" font-family="Times,serif" font-size="14.00" fill="#000000">simplify_false_and_something</text>
<text text-anchor="middle" x="270.1869" y="-544.3" font-family="Times,serif" font-size="14.00" fill="#000000">simplify_something_and_false</text>
<text text-anchor="middle" x="270.1869" y="-529.3" font-family="Times,serif" font-size="14.00" fill="#000000">simplify_something_or_true</text>
<text text-anchor="middle" x="270.1869" y="-514.3" font-family="Times,serif" font-size="14.00" fill="#000000">simplify_true_or_something</text>
<text text-anchor="middle" x="270.1869" y="-499.3" font-family="Times,serif" font-size="14.00" fill="#000000">simplify_something_or_false</text>
<text text-anchor="middle" x="270.1869" y="-484.3" font-family="Times,serif" font-size="14.00" fill="#000000">simplify_false_or_something</text>
<text text-anchor="middle" x="270.1869" y="-469.3" font-family="Times,serif" font-size="14.00" fill="#000000">simplify_identity_equal</text>
<text text-anchor="middle" x="270.1869" y="-454.3" font-family="Times,serif" font-size="14.00" fill="#000000">simplify_identity_not_equal</text>
</g>
<!-- boolean_literal_cleanup&#45;&gt;boolean_expression_simplify -->
<g id="edge3" class="edge">
<title>boolean_literal_cleanup&#45;&gt;boolean_expression_simplify</title>
<path fill="none" stroke="#000000" d="M333.9883,-716.8515C329.715,-706.0781 323.8893,-691.3907 317.4856,-675.2462"/>
<polygon fill="#000000" stroke="#000000" points="320.5963,-673.5958 313.6558,-665.5908 314.0895,-676.1767 320.5963,-673.5958"/>
<text text-anchor="middle" x="350.1869" y="-687.8" font-family="Times,serif" font-size="14.00" fill="#000000">Parent</text>
</g>
<!-- boolean_literal_cleanup&#45;&gt;statement_cleanup -->
<g id="edge4" class="edge">
<title>boolean_literal_cleanup&#45;&gt;statement_cleanup</title>
<path fill="none" stroke="#000000" d="M360.3014,-716.9738C366.14,-711.3163 372.5141,-704.9839 378.1869,-699 415.7657,-659.3602 457.0492,-611.1464 481.5091,-582.0514"/>
<polygon fill="#000000" stroke="#000000" points="484.499,-583.9328 488.2411,-574.0208 479.1346,-579.4358 484.499,-583.9328"/>
<text text-anchor="middle" x="413.1869" y="-687.8" font-family="Times,serif" font-size="14.00" fill="#000000">Parent</text>
</g>
<!-- boolean_expression_simplify&#45;&gt;boolean_literal_cleanup -->
<g id="edge5" class="edge">
<title>boolean_expression_simplify&#45;&gt;boolean_literal_cleanup</title>
<path fill="none" stroke="#000000" d="M257.8357,-665.6926C260.0526,-677.4716 263.9504,-688.8455 270.1869,-699 273.3839,-704.2057 277.5938,-708.6869 282.3713,-712.5388"/>
<polygon fill="#000000" stroke="#000000" points="280.6597,-715.6114 290.8689,-718.4436 284.6542,-709.863 280.6597,-715.6114"/>
<text text-anchor="middle" x="294.1869" y="-687.8" font-family="Times,serif" font-size="14.00" fill="#000000">Parent</text>
</g>
<!-- delete_variable_declaration -->
<g id="node5" class="node">
<title>delete_variable_declaration</title>
<ellipse fill="none" stroke="#000000" cx="294.1869" cy="-360" rx="139.9756" ry="18"/>
<text text-anchor="middle" x="294.1869" y="-356.3" font-family="Times,serif" font-size="14.00" fill="#000000">delete_variable_declaration</text>
</g>
<!-- statement_cleanup&#45;&gt;delete_variable_declaration -->
<g id="edge7" class="edge">
<title>statement_cleanup&#45;&gt;delete_variable_declaration</title>
<path fill="none" stroke="#000000" d="M486.2408,-538.0379C465.1562,-515.8926 427.8214,-477.3413 394.1869,-446 371.2175,-424.5968 344.1672,-401.4509 323.9961,-384.5686"/>
<polygon fill="#000000" stroke="#000000" points="326.0012,-381.6834 316.0791,-377.9682 321.5187,-387.06 326.0012,-381.6834"/>
<text text-anchor="middle" x="435.1869" y="-416.8" font-family="Times,serif" font-size="14.00" fill="#000000">Function&#45;Method</text>
</g>
<!-- if_cleanup -->
<g id="node7" class="node">
<title>if_cleanup</title>
<polygon fill="none" stroke="#000000" points="452.1869,-325.5 452.1869,-394.5 664.1869,-394.5 664.1869,-325.5 452.1869,-325.5"/>
<text text-anchor="middle" x="558.1869" y="-379.3" font-family="Times,serif" font-size="14.00" fill="#000000">if_cleanup</text>
<text text-anchor="middle" x="558.1869" y="-348.3" font-family="Times,serif" font-size="14.00" fill="#000000">simplify_if_statement_true</text>
<text text-anchor="middle" x="558.1869" y="-333.3" font-family="Times,serif" font-size="14.00" fill="#000000">simplify_if_statement_false</text>
</g>
<!-- statement_cleanup&#45;&gt;if_cleanup -->
<g id="edge6" class="edge">
<title>statement_cleanup&#45;&gt;if_cleanup</title>
<path fill="none" stroke="#000000" d="M508.2625,-537.9121C516.707,-507.819 533.8803,-446.6197 545.707,-404.4736"/>
<polygon fill="#000000" stroke="#000000" points="549.1091,-405.3042 548.4411,-394.7305 542.3694,-403.4129 549.1091,-405.3042"/>
<text text-anchor="middle" x="566.1869" y="-416.8" font-family="Times,serif" font-size="14.00" fill="#000000">Parent</text>
</g>
<!-- replace_identifier_with_value -->
<g id="node6" class="node">
<title>replace_identifier_with_value</title>
<ellipse fill="none" stroke="#000000" cx="148.1869" cy="-224" rx="148.3739" ry="18"/>
<text text-anchor="middle" x="148.1869" y="-220.3" font-family="Times,serif" font-size="14.00" fill="#000000">replace_identifier_with_value</text>
</g>
<!-- delete_variable_declaration&#45;&gt;replace_identifier_with_value -->
<g id="edge8" class="edge">
<title>delete_variable_declaration&#45;&gt;replace_identifier_with_value</title>
<path fill="none" stroke="#000000" d="M274.7992,-341.9403C249.1654,-318.0622 203.8752,-275.8741 174.982,-248.9599"/>
<polygon fill="#000000" stroke="#000000" points="177.3576,-246.3895 167.6547,-242.1344 172.5863,-251.5115 177.3576,-246.3895"/>
<text text-anchor="middle" x="297.1869" y="-295.8" font-family="Times,serif" font-size="14.00" fill="#000000">Function&#45;Method</text>
</g>
<!-- replace_identifier_with_value&#45;&gt;boolean_literal_cleanup -->
<g id="edge9" class="edge">
<title>replace_identifier_with_value&#45;&gt;boolean_literal_cleanup</title>
<path fill="none" stroke="#000000" d="M141.2989,-242.187C118.0216,-307.0068 48.9544,-530.1007 145.1869,-666 159.571,-686.3132 215.3977,-704.776 263.8094,-717.4809"/>
<polygon fill="#000000" stroke="#000000" points="263.137,-720.9218 273.6936,-720.0236 264.8809,-714.1426 263.137,-720.9218"/>
<text text-anchor="middle" x="124.1869" y="-416.8" font-family="Times,serif" font-size="14.00" fill="#000000">Parent</text>
</g>
<!-- empty_if_else_cleanup -->
<g id="node8" class="node">
<title>empty_if_else_cleanup</title>
<polygon fill="none" stroke="#000000" points="691.6869,-174.5 691.6869,-273.5 942.6869,-273.5 942.6869,-174.5 691.6869,-174.5"/>
<text text-anchor="middle" x="817.1869" y="-258.3" font-family="Times,serif" font-size="14.00" fill="#000000">empty_if_else_cleanup</text>
<text text-anchor="middle" x="817.1869" y="-227.3" font-family="Times,serif" font-size="14.00" fill="#000000">remove_empty_else_if</text>
<text text-anchor="middle" x="817.1869" y="-212.3" font-family="Times,serif" font-size="14.00" fill="#000000">remove_empty_else_if_with_else</text>
<text text-anchor="middle" x="817.1869" y="-197.3" font-family="Times,serif" font-size="14.00" fill="#000000">remove_empty_else</text>
<text text-anchor="middle" x="817.1869" y="-182.3" font-family="Times,serif" font-size="14.00" fill="#000000">remove_empty_if_without_else</text>
</g>
<!-- if_cleanup&#45;&gt;empty_if_else_cleanup -->
<g id="edge11" class="edge">
<title>if_cleanup&#45;&gt;empty_if_else_cleanup</title>
<path fill="none" stroke="#000000" d="M624.2136,-325.3296C651.3589,-311.0757 683.4475,-294.2261 713.5851,-278.4009"/>
<polygon fill="#000000" stroke="#000000" points="715.2199,-281.4958 722.4463,-273.7479 711.9655,-275.2982 715.2199,-281.4958"/>
<text text-anchor="middle" x="711.1869" y="-295.8" font-family="Times,serif" font-size="14.00" fill="#000000">Parent</text>
</g>
<!-- remove_unnecessary_nested_block -->
<g id="node9" class="node">
<title>remove_unnecessary_nested_block</title>
<ellipse fill="none" stroke="#000000" cx="499.1869" cy="-224" rx="174.6691" ry="18"/>
<text text-anchor="middle" x="499.1869" y="-220.3" font-family="Times,serif" font-size="14.00" fill="#000000">remove_unnecessary_nested_block</text>
</g>
<!-- if_cleanup&#45;&gt;remove_unnecessary_nested_block -->
<g id="edge10" class="edge">
<title>if_cleanup&#45;&gt;remove_unnecessary_nested_block</title>
<path fill="none" stroke="#000000" d="M535.6827,-325.2618C532.2637,-319.2943 528.9579,-313.0606 526.1869,-307 518.1236,-289.3649 511.3749,-268.6207 506.6414,-252.2824"/>
<polygon fill="#000000" stroke="#000000" points="509.9003,-250.9412 503.8282,-242.259 503.1607,-252.8328 509.9003,-250.9412"/>
<text text-anchor="middle" x="550.1869" y="-295.8" font-family="Times,serif" font-size="14.00" fill="#000000">Parent</text>
</g>
<!-- remove_empty_nested_block -->
<g id="node12" class="node">
<title>remove_empty_nested_block</title>
<ellipse fill="none" stroke="#000000" cx="817.1869" cy="-105" rx="145.6742" ry="18"/>
<text text-anchor="middle" x="817.1869" y="-101.3" font-family="Times,serif" font-size="14.00" fill="#000000">remove_empty_nested_block</text>
</g>
<!-- empty_if_else_cleanup&#45;&gt;remove_empty_nested_block -->
<g id="edge12" class="edge">
<title>empty_if_else_cleanup&#45;&gt;remove_empty_nested_block</title>
<path fill="none" stroke="#000000" d="M817.1869,-174.2228C817.1869,-160.233 817.1869,-145.5061 817.1869,-133.2494"/>
<polygon fill="#000000" stroke="#000000" points="820.687,-133.1949 817.1869,-123.195 813.687,-133.195 820.687,-133.1949"/>
<text text-anchor="middle" x="841.1869" y="-144.8" font-family="Times,serif" font-size="14.00" fill="#000000">Parent</text>
</g>
<!-- return_statement_cleanup -->
<g id="node9" class="node">
<title>return_statement_cleanup</title>
<ellipse fill="none" stroke="#000000" cx="691.5" cy="-105" rx="133.7763" ry="18"/>
<text text-anchor="middle" x="691.5" y="-101.3" font-family="Times,serif" font-size="14.00" fill="#000000">return_statement_cleanup</text>
</g>
<!-- remove_unnecessary_nested_block&#45;&gt;return_statement_cleanup -->
<g id="edge11" class="edge">
<title>remove_unnecessary_nested_block&#45;&gt;return_statement_cleanup</title>
<path fill="none" stroke="#000000" d="M691.5,-173.9735C691.5,-162.1918 691.5,-146.5607 691.5,-133.1581"/>
<polygon fill="#000000" stroke="#000000" points="695.0001,-133.0033 691.5,-123.0034 688.0001,-133.0034 695.0001,-133.0033"/>
<text text-anchor="middle" x="715.5" y="-144.8" font-family="Times,serif" font-size="14.00" fill="#000000">Parent</text>
</g>
<!-- delete_statement_after_return -->
<g id="node11" class="node">
<title>delete_statement_after_return</title>
<ellipse fill="none" stroke="#000000" cx="499.1869" cy="-18" rx="153.2729" ry="18"/>
<text text-anchor="middle" x="499.1869" y="-14.3" font-family="Times,serif" font-size="14.00" fill="#000000">delete_statement_after_return</text>
</g>
<!-- return_statement_cleanup&#45;&gt;delete_statement_after_return -->
<g id="edge12" class="edge">
<title>return_statement_cleanup&#45;&gt;delete_statement_after_return</title>
<path fill="none" stroke="#000000" d="M669.6927,-87.1719C664.7457,-81.8931 660.1679,-75.7104 657.5,-69 654.0354,-60.2857 656.9851,-51.5276 662.3435,-43.7883"/>
<polygon fill="#000000" stroke="#000000" points="665.2398,-45.778 668.9139,-35.8406 659.8447,-41.3179 665.2398,-45.778"/>
<text text-anchor="middle" x="681.5" y="-57.8" font-family="Times,serif" font-size="14.00" fill="#000000">Parent</text>
</g>
<!-- delete_statement_after_return&#45;&gt;return_statement_cleanup -->
<g id="edge13" class="edge">
<title>delete_statement_after_return&#45;&gt;return_statement_cleanup</title>
<path fill="none" stroke="#000000" d="M700.6895,-36.2422C704.4827,-45.8916 707.5654,-57.9904 705.5,-69 704.9957,-71.6879 704.2969,-74.433 703.4782,-77.1488"/>
<polygon fill="#000000" stroke="#000000" points="700.1343,-76.1076 700.1219,-86.7024 706.7386,-78.4278 700.1343,-76.1076"/>
<text text-anchor="middle" x="729.5" y="-57.8" font-family="Times,serif" font-size="14.00" fill="#000000">Parent</text>
</g>
</g>
</svg>
