<?xml version="1.0" encoding="UTF-8" standalone="no"?>
<!DOCTYPE svg PUBLIC "-//W3C//DTD SVG 1.1//EN"
 "http://www.w3.org/Graphics/SVG/1.1/DTD/svg11.dtd">
<!-- Generated by graphviz version 2.40.1 (20161225.0304)
 -->
<!-- Title: %3 Pages: 1 -->
<svg width="1027pt" height="919pt"
 viewBox="0.00 0.00 1027.10 919.00" xmlns="http://www.w3.org/2000/svg" xmlns:xlink="http://www.w3.org/1999/xlink">
<g id="graph0" class="graph" transform="scale(1 1) rotate(0) translate(4 915)">
<title>%3</title>
<polygon fill="#ffffff" stroke="transparent" points="-4,4 -4,-915 1023.0982,-915 1023.0982,4 -4,4"/>
<text text-anchor="middle" x="509.5491" y="-883" font-family="Times,serif" font-size="30.00" fill="#000000">Go Built&#45;in Rules</text>
<!-- replace_expression_with_boolean_literal -->
<g id="node1" class="node">
<title>replace_expression_with_boolean_literal</title>
<ellipse fill="none" stroke="#000000" cx="341.2637" cy="-852" rx="199.5646" ry="18"/>
<text text-anchor="middle" x="341.2637" y="-848.3" font-family="Times,serif" font-size="14.00" fill="#000000">replace_expression_with_boolean_literal</text>
</g>
<!-- boolean_literal_cleanup -->
<g id="node2" class="node">
<title>boolean_literal_cleanup</title>
<ellipse fill="none" stroke="#000000" cx="261.2637" cy="-765" rx="120.7786" ry="18"/>
<text text-anchor="middle" x="261.2637" y="-761.3" font-family="Times,serif" font-size="14.00" fill="#000000">boolean_literal_cleanup</text>
</g>
<!-- replace_expression_with_boolean_literal&#45;&gt;boolean_literal_cleanup -->
<g id="edge1" class="edge">
<title>replace_expression_with_boolean_literal&#45;&gt;boolean_literal_cleanup</title>
<path fill="none" stroke="#000000" d="M324.6876,-833.9735C313.103,-821.3752 297.471,-804.3755 284.6251,-790.4055"/>
<polygon fill="#000000" stroke="#000000" points="287.1636,-787.9953 277.8185,-783.0034 282.0109,-792.7335 287.1636,-787.9953"/>
<text text-anchor="middle" x="330.2637" y="-804.8" font-family="Times,serif" font-size="14.00" fill="#000000">Parent</text>
</g>
<!-- statement_cleanup -->
<g id="node4" class="node">
<title>statement_cleanup</title>
<ellipse fill="none" stroke="#000000" cx="423.2637" cy="-586" rx="99.3824" ry="18"/>
<text text-anchor="middle" x="423.2637" y="-582.3" font-family="Times,serif" font-size="14.00" fill="#000000">statement_cleanup</text>
</g>
<!-- replace_expression_with_boolean_literal&#45;&gt;statement_cleanup -->
<g id="edge2" class="edge">
<title>replace_expression_with_boolean_literal&#45;&gt;statement_cleanup</title>
<path fill="none" stroke="#000000" d="M358.1018,-833.8344C369.3066,-820.6978 383.3688,-801.9873 391.2637,-783 414.8538,-726.2653 421.1169,-653.6056 422.7385,-614.3053"/>
<polygon fill="#000000" stroke="#000000" points="426.2419,-614.2592 423.0833,-604.1462 419.246,-614.0216 426.2419,-614.2592"/>
<text text-anchor="middle" x="427.2637" y="-761.3" font-family="Times,serif" font-size="14.00" fill="#000000">Parent</text>
</g>
<!-- boolean_expression_simplify -->
<g id="node3" class="node">
<title>boolean_expression_simplify</title>
<polygon fill="none" stroke="#000000" points="74.7637,-476.5 74.7637,-695.5 305.7637,-695.5 305.7637,-476.5 74.7637,-476.5"/>
<text text-anchor="middle" x="190.2637" y="-680.3" font-family="Times,serif" font-size="14.00" fill="#000000">boolean_expression_simplify</text>
<text text-anchor="middle" x="190.2637" y="-649.3" font-family="Times,serif" font-size="14.00" fill="#000000">simplify_not_false</text>
<text text-anchor="middle" x="190.2637" y="-634.3" font-family="Times,serif" font-size="14.00" fill="#000000">simplify_not_true</text>
<text text-anchor="middle" x="190.2637" y="-619.3" font-family="Times,serif" font-size="14.00" fill="#000000">simplify_true_and_something</text>
<text text-anchor="middle" x="190.2637" y="-604.3" font-family="Times,serif" font-size="14.00" fill="#000000">simplify_something_and_true</text>
<text text-anchor="middle" x="190.2637" y="-589.3" font-family="Times,serif" font-size="14.00" fill="#000000">simplify_false_and_something</text>
<text text-anchor="middle" x="190.2637" y="-574.3" font-family="Times,serif" font-size="14.00" fill="#000000">simplify_something_and_false</text>
<text text-anchor="middle" x="190.2637" y="-559.3" font-family="Times,serif" font-size="14.00" fill="#000000">simplify_something_or_true</text>
<text text-anchor="middle" x="190.2637" y="-544.3" font-family="Times,serif" font-size="14.00" fill="#000000">simplify_true_or_something</text>
<text text-anchor="middle" x="190.2637" y="-529.3" font-family="Times,serif" font-size="14.00" fill="#000000">simplify_something_or_false</text>
<text text-anchor="middle" x="190.2637" y="-514.3" font-family="Times,serif" font-size="14.00" fill="#000000">simplify_false_or_something</text>
<text text-anchor="middle" x="190.2637" y="-499.3" font-family="Times,serif" font-size="14.00" fill="#000000">simplify_identity_equal</text>
<text text-anchor="middle" x="190.2637" y="-484.3" font-family="Times,serif" font-size="14.00" fill="#000000">simplify_identity_not_equal</text>
</g>
<!-- boolean_literal_cleanup&#45;&gt;boolean_expression_simplify -->
<g id="edge3" class="edge">
<title>boolean_literal_cleanup&#45;&gt;boolean_expression_simplify</title>
<path fill="none" stroke="#000000" d="M254.0651,-746.8515C249.7919,-736.0781 243.9662,-721.3907 237.5625,-705.2462"/>
<polygon fill="#000000" stroke="#000000" points="240.6732,-703.5958 233.7327,-695.5908 234.1663,-706.1767 240.6732,-703.5958"/>
<text text-anchor="middle" x="270.2637" y="-717.8" font-family="Times,serif" font-size="14.00" fill="#000000">Parent</text>
</g>
<!-- boolean_literal_cleanup&#45;&gt;statement_cleanup -->
<g id="edge4" class="edge">
<title>boolean_literal_cleanup&#45;&gt;statement_cleanup</title>
<path fill="none" stroke="#000000" d="M280.3783,-746.9738C286.2169,-741.3163 292.5909,-734.9839 298.2637,-729 335.8426,-689.3602 377.1261,-641.1464 401.586,-612.0514"/>
<polygon fill="#000000" stroke="#000000" points="404.5759,-613.9328 408.3179,-604.0208 399.2114,-609.4358 404.5759,-613.9328"/>
<text text-anchor="middle" x="333.2637" y="-717.8" font-family="Times,serif" font-size="14.00" fill="#000000">Parent</text>
</g>
<!-- boolean_expression_simplify&#45;&gt;boolean_literal_cleanup -->
<g id="edge5" class="edge">
<title>boolean_expression_simplify&#45;&gt;boolean_literal_cleanup</title>
<path fill="none" stroke="#000000" d="M177.9126,-695.6926C180.1294,-707.4716 184.0272,-718.8455 190.2637,-729 193.4608,-734.2057 197.6706,-738.6869 202.4482,-742.5388"/>
<polygon fill="#000000" stroke="#000000" points="200.7365,-745.6114 210.9458,-748.4436 204.731,-739.863 200.7365,-745.6114"/>
<text text-anchor="middle" x="214.2637" y="-717.8" font-family="Times,serif" font-size="14.00" fill="#000000">Parent</text>
</g>
<!-- delete_variable_declaration -->
<g id="node5" class="node">
<title>delete_variable_declaration</title>
<ellipse fill="none" stroke="#000000" cx="214.2637" cy="-375" rx="139.9756" ry="18"/>
<text text-anchor="middle" x="214.2637" y="-371.3" font-family="Times,serif" font-size="14.00" fill="#000000">delete_variable_declaration</text>
</g>
<!-- statement_cleanup&#45;&gt;delete_variable_declaration -->
<g id="edge7" class="edge">
<title>statement_cleanup&#45;&gt;delete_variable_declaration</title>
<path fill="none" stroke="#000000" d="M405.4445,-568.0103C368.195,-530.4043 282.0079,-443.3925 239.2499,-400.2253"/>
<polygon fill="#000000" stroke="#000000" points="241.5618,-397.5858 232.0378,-392.9442 236.5885,-402.512 241.5618,-397.5858"/>
<text text-anchor="middle" x="356.2637" y="-446.8" font-family="Times,serif" font-size="14.00" fill="#000000">Function&#45;Method</text>
</g>
<!-- if_cleanup -->
<g id="node7" class="node">
<title>if_cleanup</title>
<polygon fill="none" stroke="#000000" points="372.2637,-325.5 372.2637,-424.5 750.2637,-424.5 750.2637,-325.5 372.2637,-325.5"/>
<text text-anchor="middle" x="561.2637" y="-409.3" font-family="Times,serif" font-size="14.00" fill="#000000">if_cleanup</text>
<text text-anchor="middle" x="561.2637" y="-378.3" font-family="Times,serif" font-size="14.00" fill="#000000">simplify_if_statement_true</text>
<text text-anchor="middle" x="561.2637" y="-363.3" font-family="Times,serif" font-size="14.00" fill="#000000">simplify_if_statement_false</text>
<text text-anchor="middle" x="561.2637" y="-348.3" font-family="Times,serif" font-size="14.00" fill="#000000">simplify_something_and_false_consequence_block</text>
<text text-anchor="middle" x="561.2637" y="-333.3" font-family="Times,serif" font-size="14.00" fill="#000000">simplify_something_or_true_alternative</text>
</g>
<!-- statement_cleanup&#45;&gt;if_cleanup -->
<g id="edge6" class="edge">
<title>statement_cleanup&#45;&gt;if_cleanup</title>
<path fill="none" stroke="#000000" d="M435.0295,-568.0103C454.3181,-538.5182 493.4802,-478.64 523.099,-433.3533"/>
<polygon fill="#000000" stroke="#000000" points="526.1544,-435.0759 528.6989,-424.7911 520.2961,-431.2444 526.1544,-435.0759"/>
<text text-anchor="middle" x="540.2637" y="-446.8" font-family="Times,serif" font-size="14.00" fill="#000000">Parent</text>
</g>
<!-- replace_identifier_with_value -->
<g id="node6" class="node">
<title>replace_identifier_with_value</title>
<ellipse fill="none" stroke="#000000" cx="214.2637" cy="-224" rx="148.3739" ry="18"/>
<text text-anchor="middle" x="214.2637" y="-220.3" font-family="Times,serif" font-size="14.00" fill="#000000">replace_identifier_with_value</text>
</g>
<!-- delete_variable_declaration&#45;&gt;replace_identifier_with_value -->
<g id="edge8" class="edge">
<title>delete_variable_declaration&#45;&gt;replace_identifier_with_value</title>
<path fill="none" stroke="#000000" d="M214.2637,-356.7859C214.2637,-330.824 214.2637,-282.9387 214.2637,-252.3233"/>
<polygon fill="#000000" stroke="#000000" points="217.7638,-252.2787 214.2637,-242.2787 210.7638,-252.2788 217.7638,-252.2787"/>
<text text-anchor="middle" x="276.2637" y="-295.8" font-family="Times,serif" font-size="14.00" fill="#000000">Function&#45;Method</text>
</g>
<!-- replace_identifier_with_value&#45;&gt;boolean_literal_cleanup -->
<g id="edge9" class="edge">
<title>replace_identifier_with_value&#45;&gt;boolean_literal_cleanup</title>
<path fill="none" stroke="#000000" d="M167.9341,-241.2648C132.7191,-257.1357 86.7842,-284.4136 65.2637,-325 -11.9799,-470.677 -30.0255,-561.4328 65.2637,-696 79.6478,-716.3132 135.4745,-734.776 183.8863,-747.4809"/>
<polygon fill="#000000" stroke="#000000" points="183.2138,-750.9218 193.7705,-750.0236 184.9578,-744.1426 183.2138,-750.9218"/>
<text text-anchor="middle" x="37.2637" y="-446.8" font-family="Times,serif" font-size="14.00" fill="#000000">Parent</text>
</g>
<!-- if_cleanup&#45;&gt;replace_identifier_with_value -->
<g id="edge12" class="edge">
<title>if_cleanup&#45;&gt;replace_identifier_with_value</title>
<path fill="none" stroke="#000000" d="M447.1623,-325.3478C385.0689,-298.3273 311.432,-266.2836 263.8313,-245.5698"/>
<polygon fill="#000000" stroke="#000000" points="264.9422,-242.2362 254.3762,-241.4553 262.149,-248.6548 264.9422,-242.2362"/>
<text text-anchor="middle" x="460.2637" y="-295.8" font-family="Times,serif" font-size="14.00" fill="#000000">Function&#45;Method</text>
</g>
<!-- empty_if_else_cleanup -->
<g id="node8" class="node">
<title>empty_if_else_cleanup</title>
<polygon fill="none" stroke="#000000" points="400.7637,-174.5 400.7637,-273.5 651.7637,-273.5 651.7637,-174.5 400.7637,-174.5"/>
<text text-anchor="middle" x="526.2637" y="-258.3" font-family="Times,serif" font-size="14.00" fill="#000000">empty_if_else_cleanup</text>
<text text-anchor="middle" x="526.2637" y="-227.3" font-family="Times,serif" font-size="14.00" fill="#000000">remove_empty_else_if</text>
<text text-anchor="middle" x="526.2637" y="-212.3" font-family="Times,serif" font-size="14.00" fill="#000000">remove_empty_else_if_with_else</text>
<text text-anchor="middle" x="526.2637" y="-197.3" font-family="Times,serif" font-size="14.00" fill="#000000">remove_empty_else</text>
<text text-anchor="middle" x="526.2637" y="-182.3" font-family="Times,serif" font-size="14.00" fill="#000000">remove_empty_if_without_else</text>
</g>
<!-- if_cleanup&#45;&gt;empty_if_else_cleanup -->
<g id="edge11" class="edge">
<title>if_cleanup&#45;&gt;empty_if_else_cleanup</title>
<path fill="none" stroke="#000000" d="M549.7064,-325.1385C546.614,-311.7971 543.2407,-297.2438 540.0415,-283.4413"/>
<polygon fill="#000000" stroke="#000000" points="543.4169,-282.5031 537.7492,-273.5517 536.5977,-284.0837 543.4169,-282.5031"/>
<text text-anchor="middle" x="568.2637" y="-295.8" font-family="Times,serif" font-size="14.00" fill="#000000">Parent</text>
</g>
<!-- remove_unnecessary_nested_block -->
<g id="node9" class="node">
<title>remove_unnecessary_nested_block</title>
<ellipse fill="none" stroke="#000000" cx="844.2637" cy="-224" rx="174.6691" ry="18"/>
<text text-anchor="middle" x="844.2637" y="-220.3" font-family="Times,serif" font-size="14.00" fill="#000000">remove_unnecessary_nested_block</text>
</g>
<!-- if_cleanup&#45;&gt;remove_unnecessary_nested_block -->
<g id="edge10" class="edge">
<title>if_cleanup&#45;&gt;remove_unnecessary_nested_block</title>
<path fill="none" stroke="#000000" d="M654.3205,-325.3478C704.1346,-298.7685 763.0582,-267.3287 801.9197,-246.5934"/>
<polygon fill="#000000" stroke="#000000" points="803.6893,-249.6164 810.8643,-241.8209 800.394,-243.4405 803.6893,-249.6164"/>
<text text-anchor="middle" x="734.2637" y="-295.8" font-family="Times,serif" font-size="14.00" fill="#000000">Parent</text>
</g>
<!-- remove_empty_nested_block -->
<g id="node12" class="node">
<title>remove_empty_nested_block</title>
<ellipse fill="none" stroke="#000000" cx="526.2637" cy="-105" rx="145.6742" ry="18"/>
<text text-anchor="middle" x="526.2637" y="-101.3" font-family="Times,serif" font-size="14.00" fill="#000000">remove_empty_nested_block</text>
</g>
<!-- empty_if_else_cleanup&#45;&gt;remove_empty_nested_block -->
<g id="edge13" class="edge">
<title>empty_if_else_cleanup&#45;&gt;remove_empty_nested_block</title>
<path fill="none" stroke="#000000" d="M526.2637,-174.2228C526.2637,-160.233 526.2637,-145.5061 526.2637,-133.2494"/>
<polygon fill="#000000" stroke="#000000" points="529.7638,-133.1949 526.2637,-123.195 522.7638,-133.195 529.7638,-133.1949"/>
<text text-anchor="middle" x="550.2637" y="-144.8" font-family="Times,serif" font-size="14.00" fill="#000000">Parent</text>
</g>
<!-- return_statement_cleanup -->
<g id="node9" class="node">
<title>return_statement_cleanup</title>
<ellipse fill="none" stroke="#000000" cx="691.5" cy="-105" rx="133.7763" ry="18"/>
<text text-anchor="middle" x="691.5" y="-101.3" font-family="Times,serif" font-size="14.00" fill="#000000">return_statement_cleanup</text>
</g>
<!-- remove_unnecessary_nested_block&#45;&gt;return_statement_cleanup -->
<g id="edge11" class="edge">
<title>remove_unnecessary_nested_block&#45;&gt;return_statement_cleanup</title>
<path fill="none" stroke="#000000" d="M691.5,-173.9735C691.5,-162.1918 691.5,-146.5607 691.5,-133.1581"/>
<polygon fill="#000000" stroke="#000000" points="695.0001,-133.0033 691.5,-123.0034 688.0001,-133.0034 695.0001,-133.0033"/>
<text text-anchor="middle" x="715.5" y="-144.8" font-family="Times,serif" font-size="14.00" fill="#000000">Parent</text>
</g>
<!-- delete_statement_after_return -->
<g id="node11" class="node">
<title>delete_statement_after_return</title>
<ellipse fill="none" stroke="#000000" cx="843.2637" cy="-18" rx="153.2729" ry="18"/>
<text text-anchor="middle" x="843.2637" y="-14.3" font-family="Times,serif" font-size="14.00" fill="#000000">delete_statement_after_return</text>
</g>
<!-- return_statement_cleanup&#45;&gt;delete_statement_after_return -->
<g id="edge12" class="edge">
<title>return_statement_cleanup&#45;&gt;delete_statement_after_return</title>
<path fill="none" stroke="#000000" d="M669.6927,-87.1719C664.7457,-81.8931 660.1679,-75.7104 657.5,-69 654.0354,-60.2857 656.9851,-51.5276 662.3435,-43.7883"/>
<polygon fill="#000000" stroke="#000000" points="665.2398,-45.778 668.9139,-35.8406 659.8447,-41.3179 665.2398,-45.778"/>
<text text-anchor="middle" x="681.5" y="-57.8" font-family="Times,serif" font-size="14.00" fill="#000000">Parent</text>
</g>
<!-- delete_statement_after_return&#45;&gt;return_statement_cleanup -->
<g id="edge13" class="edge">
<title>delete_statement_after_return&#45;&gt;return_statement_cleanup</title>
<path fill="none" stroke="#000000" d="M700.6895,-36.2422C704.4827,-45.8916 707.5654,-57.9904 705.5,-69 704.9957,-71.6879 704.2969,-74.433 703.4782,-77.1488"/>
<polygon fill="#000000" stroke="#000000" points="700.1343,-76.1076 700.1219,-86.7024 706.7386,-78.4278 700.1343,-76.1076"/>
<text text-anchor="middle" x="729.5" y="-57.8" font-family="Times,serif" font-size="14.00" fill="#000000">Parent</text>
</g>
</g>
</svg>
