<?xml version="1.0" encoding="UTF-8" standalone="no"?>
<!DOCTYPE svg PUBLIC "-//W3C//DTD SVG 1.1//EN"
 "http://www.w3.org/Graphics/SVG/1.1/DTD/svg11.dtd">
<!-- Generated by graphviz version 2.40.1 (20161225.0304)
 -->
<!-- Title: %3 Pages: 1 -->
<svg width="970pt" height="889pt"
 viewBox="0.00 0.00 970.30 889.00" xmlns="http://www.w3.org/2000/svg" xmlns:xlink="http://www.w3.org/1999/xlink">
<g id="graph0" class="graph" transform="scale(1 1) rotate(0) translate(4 885)">
<title>%3</title>
<polygon fill="#ffffff" stroke="transparent" points="-4,4 -4,-885 966.2997,-885 966.2997,4 -4,4"/>
<text text-anchor="middle" x="481.1498" y="-853" font-family="Times,serif" font-size="30.00" fill="#000000">Go Built&#45;in Rules</text>
<!-- replace_expression_with_boolean_literal -->
<g id="node1" class="node">
<title>replace_expression_with_boolean_literal</title>
<ellipse fill="none" stroke="#000000" cx="333.4652" cy="-822" rx="199.5646" ry="18"/>
<text text-anchor="middle" x="333.4652" y="-818.3" font-family="Times,serif" font-size="14.00" fill="#000000">replace_expression_with_boolean_literal</text>
</g>
<!-- boolean_literal_cleanup -->
<g id="node2" class="node">
<title>boolean_literal_cleanup</title>
<ellipse fill="none" stroke="#000000" cx="253.4652" cy="-735" rx="120.7786" ry="18"/>
<text text-anchor="middle" x="253.4652" y="-731.3" font-family="Times,serif" font-size="14.00" fill="#000000">boolean_literal_cleanup</text>
</g>
<!-- replace_expression_with_boolean_literal&#45;&gt;boolean_literal_cleanup -->
<g id="edge1" class="edge">
<title>replace_expression_with_boolean_literal&#45;&gt;boolean_literal_cleanup</title>
<path fill="none" stroke="#000000" d="M316.8891,-803.9735C305.3045,-791.3752 289.6725,-774.3755 276.8266,-760.4055"/>
<polygon fill="#000000" stroke="#000000" points="279.3651,-757.9953 270.02,-753.0034 274.2124,-762.7335 279.3651,-757.9953"/>
<text text-anchor="middle" x="322.4652" y="-774.8" font-family="Times,serif" font-size="14.00" fill="#000000">Parent</text>
</g>
<!-- statement_cleanup -->
<g id="node4" class="node">
<title>statement_cleanup</title>
<ellipse fill="none" stroke="#000000" cx="415.4652" cy="-556" rx="99.3824" ry="18"/>
<text text-anchor="middle" x="415.4652" y="-552.3" font-family="Times,serif" font-size="14.00" fill="#000000">statement_cleanup</text>
</g>
<!-- replace_expression_with_boolean_literal&#45;&gt;statement_cleanup -->
<g id="edge2" class="edge">
<title>replace_expression_with_boolean_literal&#45;&gt;statement_cleanup</title>
<path fill="none" stroke="#000000" d="M350.3033,-803.8344C361.508,-790.6978 375.5703,-771.9873 383.4652,-753 407.0553,-696.2653 413.3184,-623.6056 414.9399,-584.3053"/>
<polygon fill="#000000" stroke="#000000" points="418.4434,-584.2592 415.2848,-574.1462 411.4474,-584.0216 418.4434,-584.2592"/>
<text text-anchor="middle" x="419.4652" y="-731.3" font-family="Times,serif" font-size="14.00" fill="#000000">Parent</text>
</g>
<!-- boolean_expression_simplify -->
<g id="node3" class="node">
<title>boolean_expression_simplify</title>
<polygon fill="none" stroke="#000000" points="66.9652,-446.5 66.9652,-665.5 297.9652,-665.5 297.9652,-446.5 66.9652,-446.5"/>
<text text-anchor="middle" x="182.4652" y="-650.3" font-family="Times,serif" font-size="14.00" fill="#000000">boolean_expression_simplify</text>
<text text-anchor="middle" x="182.4652" y="-619.3" font-family="Times,serif" font-size="14.00" fill="#000000">simplify_not_false</text>
<text text-anchor="middle" x="182.4652" y="-604.3" font-family="Times,serif" font-size="14.00" fill="#000000">simplify_not_true</text>
<text text-anchor="middle" x="182.4652" y="-589.3" font-family="Times,serif" font-size="14.00" fill="#000000">simplify_true_and_something</text>
<text text-anchor="middle" x="182.4652" y="-574.3" font-family="Times,serif" font-size="14.00" fill="#000000">simplify_something_and_true</text>
<text text-anchor="middle" x="182.4652" y="-559.3" font-family="Times,serif" font-size="14.00" fill="#000000">simplify_false_and_something</text>
<text text-anchor="middle" x="182.4652" y="-544.3" font-family="Times,serif" font-size="14.00" fill="#000000">simplify_something_and_false</text>
<text text-anchor="middle" x="182.4652" y="-529.3" font-family="Times,serif" font-size="14.00" fill="#000000">simplify_something_or_true</text>
<text text-anchor="middle" x="182.4652" y="-514.3" font-family="Times,serif" font-size="14.00" fill="#000000">simplify_true_or_something</text>
<text text-anchor="middle" x="182.4652" y="-499.3" font-family="Times,serif" font-size="14.00" fill="#000000">simplify_something_or_false</text>
<text text-anchor="middle" x="182.4652" y="-484.3" font-family="Times,serif" font-size="14.00" fill="#000000">simplify_false_or_something</text>
<text text-anchor="middle" x="182.4652" y="-469.3" font-family="Times,serif" font-size="14.00" fill="#000000">simplify_identity_equal</text>
<text text-anchor="middle" x="182.4652" y="-454.3" font-family="Times,serif" font-size="14.00" fill="#000000">simplify_identity_not_equal</text>
</g>
<!-- boolean_literal_cleanup&#45;&gt;boolean_expression_simplify -->
<g id="edge3" class="edge">
<title>boolean_literal_cleanup&#45;&gt;boolean_expression_simplify</title>
<path fill="none" stroke="#000000" d="M246.2666,-716.8515C241.9934,-706.0781 236.1676,-691.3907 229.7639,-675.2462"/>
<polygon fill="#000000" stroke="#000000" points="232.8747,-673.5958 225.9341,-665.5908 226.3678,-676.1767 232.8747,-673.5958"/>
<text text-anchor="middle" x="262.4652" y="-687.8" font-family="Times,serif" font-size="14.00" fill="#000000">Parent</text>
</g>
<!-- boolean_literal_cleanup&#45;&gt;statement_cleanup -->
<g id="edge4" class="edge">
<title>boolean_literal_cleanup&#45;&gt;statement_cleanup</title>
<path fill="none" stroke="#000000" d="M272.5797,-716.9738C278.4184,-711.3163 284.7924,-704.9839 290.4652,-699 328.0441,-659.3602 369.3276,-611.1464 393.7874,-582.0514"/>
<polygon fill="#000000" stroke="#000000" points="396.7774,-583.9328 400.5194,-574.0208 391.4129,-579.4358 396.7774,-583.9328"/>
<text text-anchor="middle" x="325.4652" y="-687.8" font-family="Times,serif" font-size="14.00" fill="#000000">Parent</text>
</g>
<!-- boolean_expression_simplify&#45;&gt;boolean_literal_cleanup -->
<g id="edge5" class="edge">
<title>boolean_expression_simplify&#45;&gt;boolean_literal_cleanup</title>
<path fill="none" stroke="#000000" d="M170.1141,-665.6926C172.3309,-677.4716 176.2287,-688.8455 182.4652,-699 185.6623,-704.2057 189.8721,-708.6869 194.6496,-712.5388"/>
<polygon fill="#000000" stroke="#000000" points="192.938,-715.6114 203.1473,-718.4436 196.9325,-709.863 192.938,-715.6114"/>
<text text-anchor="middle" x="206.4652" y="-687.8" font-family="Times,serif" font-size="14.00" fill="#000000">Parent</text>
</g>
<!-- delete_variable_declaration -->
<g id="node5" class="node">
<title>delete_variable_declaration</title>
<ellipse fill="none" stroke="#000000" cx="206.4652" cy="-360" rx="139.9756" ry="18"/>
<text text-anchor="middle" x="206.4652" y="-356.3" font-family="Times,serif" font-size="14.00" fill="#000000">delete_variable_declaration</text>
</g>
<!-- statement_cleanup&#45;&gt;delete_variable_declaration -->
<g id="edge7" class="edge">
<title>statement_cleanup&#45;&gt;delete_variable_declaration</title>
<path fill="none" stroke="#000000" d="M398.5191,-538.0379C377.4345,-515.8926 340.0998,-477.3413 306.4652,-446 283.4958,-424.5968 256.4455,-401.4509 236.2744,-384.5686"/>
<polygon fill="#000000" stroke="#000000" points="238.2795,-381.6834 228.3574,-377.9682 233.797,-387.06 238.2795,-381.6834"/>
<text text-anchor="middle" x="347.4652" y="-416.8" font-family="Times,serif" font-size="14.00" fill="#000000">Function&#45;Method</text>
</g>
<!-- if_cleanup -->
<g id="node7" class="node">
<title>if_cleanup</title>
<polygon fill="none" stroke="#000000" points="364.4652,-325.5 364.4652,-394.5 576.4652,-394.5 576.4652,-325.5 364.4652,-325.5"/>
<text text-anchor="middle" x="470.4652" y="-379.3" font-family="Times,serif" font-size="14.00" fill="#000000">if_cleanup</text>
<text text-anchor="middle" x="470.4652" y="-348.3" font-family="Times,serif" font-size="14.00" fill="#000000">simplify_if_statement_true</text>
<text text-anchor="middle" x="470.4652" y="-333.3" font-family="Times,serif" font-size="14.00" fill="#000000">simplify_if_statement_false</text>
</g>
<!-- statement_cleanup&#45;&gt;if_cleanup -->
<g id="edge6" class="edge">
<title>statement_cleanup&#45;&gt;if_cleanup</title>
<path fill="none" stroke="#000000" d="M420.5409,-537.9121C428.9853,-507.819 446.1586,-446.6197 457.9853,-404.4736"/>
<polygon fill="#000000" stroke="#000000" points="461.3874,-405.3042 460.7194,-394.7305 454.6477,-403.4129 461.3874,-405.3042"/>
<text text-anchor="middle" x="478.4652" y="-416.8" font-family="Times,serif" font-size="14.00" fill="#000000">Parent</text>
</g>
<!-- replace_identifier_with_value -->
<g id="node6" class="node">
<title>replace_identifier_with_value</title>
<ellipse fill="none" stroke="#000000" cx="176.4652" cy="-224" rx="148.3739" ry="18"/>
<text text-anchor="middle" x="176.4652" y="-220.3" font-family="Times,serif" font-size="14.00" fill="#000000">replace_identifier_with_value</text>
</g>
<!-- delete_variable_declaration&#45;&gt;replace_identifier_with_value -->
<g id="edge8" class="edge">
<title>delete_variable_declaration&#45;&gt;replace_identifier_with_value</title>
<path fill="none" stroke="#000000" d="M193.6133,-341.8124C187.4481,-331.9952 180.7098,-319.3781 177.4652,-307 172.7892,-289.1614 172.5382,-268.4172 173.4567,-252.1297"/>
<polygon fill="#000000" stroke="#000000" points="176.9479,-252.3762 174.1944,-242.1454 169.9669,-251.8603 176.9479,-252.3762"/>
<text text-anchor="middle" x="239.4652" y="-295.8" font-family="Times,serif" font-size="14.00" fill="#000000">Function&#45;Method</text>
</g>
<!-- replace_identifier_with_value&#45;&gt;boolean_literal_cleanup -->
<g id="edge9" class="edge">
<title>replace_identifier_with_value&#45;&gt;boolean_literal_cleanup</title>
<path fill="none" stroke="#000000" d="M142.633,-241.6213C113.9854,-258.6477 74.8809,-287.3756 57.4652,-325 -6.1981,-462.5357 -30.1187,-542.3143 57.4652,-666 71.8493,-686.3132 127.676,-704.776 176.0877,-717.4809"/>
<polygon fill="#000000" stroke="#000000" points="175.4153,-720.9218 185.972,-720.0236 177.1592,-714.1426 175.4153,-720.9218"/>
<text text-anchor="middle" x="44.4652" y="-416.8" font-family="Times,serif" font-size="14.00" fill="#000000">Parent</text>
</g>
<!-- if_cleanup&#45;&gt;replace_identifier_with_value -->
<g id="edge12" class="edge">
<title>if_cleanup&#45;&gt;replace_identifier_with_value</title>
<path fill="none" stroke="#000000" d="M384.7247,-325.4861C370.5345,-319.4916 356.0315,-313.1908 342.4652,-307 299.8625,-287.5589 252.13,-263.4407 218.8232,-246.2219"/>
<polygon fill="#000000" stroke="#000000" points="220.3165,-243.0537 209.8278,-241.5579 217.0944,-249.2681 220.3165,-243.0537"/>
<text text-anchor="middle" x="404.4652" y="-295.8" font-family="Times,serif" font-size="14.00" fill="#000000">Function&#45;Method</text>
</g>
<!-- empty_if_else_cleanup -->
<g id="node8" class="node">
<title>empty_if_else_cleanup</title>
<polygon fill="none" stroke="#000000" points="343.9652,-174.5 343.9652,-273.5 594.9652,-273.5 594.9652,-174.5 343.9652,-174.5"/>
<text text-anchor="middle" x="469.4652" y="-258.3" font-family="Times,serif" font-size="14.00" fill="#000000">empty_if_else_cleanup</text>
<text text-anchor="middle" x="469.4652" y="-227.3" font-family="Times,serif" font-size="14.00" fill="#000000">remove_empty_else_if</text>
<text text-anchor="middle" x="469.4652" y="-212.3" font-family="Times,serif" font-size="14.00" fill="#000000">remove_empty_else_if_with_else</text>
<text text-anchor="middle" x="469.4652" y="-197.3" font-family="Times,serif" font-size="14.00" fill="#000000">remove_empty_else</text>
<text text-anchor="middle" x="469.4652" y="-182.3" font-family="Times,serif" font-size="14.00" fill="#000000">remove_empty_if_without_else</text>
</g>
<!-- if_cleanup&#45;&gt;empty_if_else_cleanup -->
<g id="edge11" class="edge">
<title>if_cleanup&#45;&gt;empty_if_else_cleanup</title>
<path fill="none" stroke="#000000" d="M470.2102,-325.3296C470.1176,-312.7274 470.01,-298.0963 469.9059,-283.938"/>
<polygon fill="#000000" stroke="#000000" points="473.4045,-283.7219 469.831,-273.7479 466.4047,-283.7734 473.4045,-283.7219"/>
<text text-anchor="middle" x="494.4652" y="-295.8" font-family="Times,serif" font-size="14.00" fill="#000000">Parent</text>
</g>
<!-- remove_unnecessary_nested_block -->
<g id="node9" class="node">
<title>remove_unnecessary_nested_block</title>
<ellipse fill="none" stroke="#000000" cx="787.4652" cy="-224" rx="174.6691" ry="18"/>
<text text-anchor="middle" x="787.4652" y="-220.3" font-family="Times,serif" font-size="14.00" fill="#000000">remove_unnecessary_nested_block</text>
</g>
<!-- if_cleanup&#45;&gt;remove_unnecessary_nested_block -->
<g id="edge10" class="edge">
<title>if_cleanup&#45;&gt;remove_unnecessary_nested_block</title>
<path fill="none" stroke="#000000" d="M551.2779,-325.3296C609.8699,-300.1923 687.2791,-266.982 737.2233,-245.5549"/>
<polygon fill="#000000" stroke="#000000" points="738.7153,-248.7234 746.5252,-241.5641 735.9553,-242.2904 738.7153,-248.7234"/>
<text text-anchor="middle" x="652.4652" y="-295.8" font-family="Times,serif" font-size="14.00" fill="#000000">Parent</text>
</g>
<!-- remove_empty_nested_block -->
<g id="node12" class="node">
<title>remove_empty_nested_block</title>
<ellipse fill="none" stroke="#000000" cx="469.4652" cy="-105" rx="145.6742" ry="18"/>
<text text-anchor="middle" x="469.4652" y="-101.3" font-family="Times,serif" font-size="14.00" fill="#000000">remove_empty_nested_block</text>
</g>
<!-- empty_if_else_cleanup&#45;&gt;remove_empty_nested_block -->
<g id="edge13" class="edge">
<title>empty_if_else_cleanup&#45;&gt;remove_empty_nested_block</title>
<path fill="none" stroke="#000000" d="M469.4652,-174.2228C469.4652,-160.233 469.4652,-145.5061 469.4652,-133.2494"/>
<polygon fill="#000000" stroke="#000000" points="472.9653,-133.1949 469.4652,-123.195 465.9653,-133.195 472.9653,-133.1949"/>
<text text-anchor="middle" x="493.4652" y="-144.8" font-family="Times,serif" font-size="14.00" fill="#000000">Parent</text>
</g>
<!-- return_statement_cleanup -->
<g id="node9" class="node">
<title>return_statement_cleanup</title>
<ellipse fill="none" stroke="#000000" cx="691.5" cy="-105" rx="133.7763" ry="18"/>
<text text-anchor="middle" x="691.5" y="-101.3" font-family="Times,serif" font-size="14.00" fill="#000000">return_statement_cleanup</text>
</g>
<!-- remove_unnecessary_nested_block&#45;&gt;return_statement_cleanup -->
<g id="edge11" class="edge">
<title>remove_unnecessary_nested_block&#45;&gt;return_statement_cleanup</title>
<path fill="none" stroke="#000000" d="M691.5,-173.9735C691.5,-162.1918 691.5,-146.5607 691.5,-133.1581"/>
<polygon fill="#000000" stroke="#000000" points="695.0001,-133.0033 691.5,-123.0034 688.0001,-133.0034 695.0001,-133.0033"/>
<text text-anchor="middle" x="715.5" y="-144.8" font-family="Times,serif" font-size="14.00" fill="#000000">Parent</text>
</g>
<!-- delete_statement_after_return -->
<g id="node11" class="node">
<title>delete_statement_after_return</title>
<ellipse fill="none" stroke="#000000" cx="786.4652" cy="-18" rx="153.2729" ry="18"/>
<text text-anchor="middle" x="786.4652" y="-14.3" font-family="Times,serif" font-size="14.00" fill="#000000">delete_statement_after_return</text>
</g>
<!-- return_statement_cleanup&#45;&gt;delete_statement_after_return -->
<g id="edge12" class="edge">
<title>return_statement_cleanup&#45;&gt;delete_statement_after_return</title>
<path fill="none" stroke="#000000" d="M669.6927,-87.1719C664.7457,-81.8931 660.1679,-75.7104 657.5,-69 654.0354,-60.2857 656.9851,-51.5276 662.3435,-43.7883"/>
<polygon fill="#000000" stroke="#000000" points="665.2398,-45.778 668.9139,-35.8406 659.8447,-41.3179 665.2398,-45.778"/>
<text text-anchor="middle" x="681.5" y="-57.8" font-family="Times,serif" font-size="14.00" fill="#000000">Parent</text>
</g>
<!-- delete_statement_after_return&#45;&gt;return_statement_cleanup -->
<g id="edge13" class="edge">
<title>delete_statement_after_return&#45;&gt;return_statement_cleanup</title>
<path fill="none" stroke="#000000" d="M700.6895,-36.2422C704.4827,-45.8916 707.5654,-57.9904 705.5,-69 704.9957,-71.6879 704.2969,-74.433 703.4782,-77.1488"/>
<polygon fill="#000000" stroke="#000000" points="700.1343,-76.1076 700.1219,-86.7024 706.7386,-78.4278 700.1343,-76.1076"/>
<text text-anchor="middle" x="729.5" y="-57.8" font-family="Times,serif" font-size="14.00" fill="#000000">Parent</text>
</g>
</g>
</svg>
